# xmcd CD database file
#
# Track frame offsets:
#	150
#	18970
#	35772
#	58131
#	83898
#	106485
#	140976
#	163630
#	186867
#	208622
#	235142
#	259741
#
# Disc length: 3727 seconds
#
# Revision: 0
# Processed by: cddbd v1.5.1PL0 Copyright (c) Steve Scherf et al.
# Submitted via: CDex 1.51
#
DISCID=ac0e8d0c
DTITLE=Greentown Jazz Band - Twenty Years of Joy
DYEAR=2005
DGENRE=Jazz
TTITLE0=I'm Crazy About My Baby
TTITLE1=Memories Of You
TTITLE2=When You're Smiling
TTITLE3=Just A Closer Walk with Thee
TTITLE4=Ja-Da
TTITLE5=Embraceable You
TTITLE6=Chinaboy
TTITLE7=Sentimental Journey
TTITLE8=Nice Work If You Can Get It
TTITLE9=Someday You'll Be Sorry
TTITLE10=Somebody Loves Me
TTITLE11=You Are My Sunshine
EXTD=YEAR: 2005
EXTT0=
EXTT1=
EXTT2=
EXTT3=
EXTT4=
EXTT5=
EXTT6=
EXTT7=
EXTT8=
EXTT9=
EXTT10=
EXTT11=
PLAYORDER=
